<?xml version="1.0" encoding="UTF-8"?>
<svg xmlns="http://www.w3.org/2000/svg" viewBox="190 330 640 750">
  <defs>
    <style>
      .cls-1 {
        fill: #cc5926;
      }

      .cls-2 {
        fill: #fff;
      }

      .cls-3 {
        fill: #4d5d5a;
      }

      .cls-4 {
        fill: #757a80;
      }

      .cls-5 {
        fill: #282722;
      }

      .cls-6 {
        fill: #d0bd9c;
      }

      .cls-7 {
        fill: #ee940c;
      }

      .cls-8 {
        fill: #5d8589;
      }

      .cls-9 {
        fill: #bf8929;
      }
    </style>
  </defs>
  <g id="Layer_3_copy" data-name="Layer 3 copy">
    <g id="flower_base">
      <path class="cls-4" d="M572,906c-26.55,21.87-49,61-53,84s-13,67-1.5,121.5c-16.5-35.5-14-81-14-100s5.36-60.43-11.84-102.87c9.71,3.27,19.93,5.23,30.44,5.79,2.02.11,4.07.16,6.09.16,15.38,0,30.07-3.07,43.48-8.64.11.02.22.04.33.06Z"/>
      <path class="cls-4" d="M219,789c0,50,95.28,117.64,140,140,20,10,140,40,140,130,0-100-60-130-100-160-32-24-180-90-180-110Z"/>
      <path class="cls-4" d="M799,789c0,50-95.28,117.64-140,140-20,10-140,60-140,150,0-100,60-150,100-180,32-24,180-90,180-110Z"/>
    </g>
    <path id="spiral_left" class="cls-6" d="M603.09,719.85c-59.8-29.16-78.22-109.41-36.31-161.41,20.98-25.51,56.63-37.31,88.9-29.77,25.23,5.66,47,22.12,56.59,46.53,13.49,32.62,1.54,75.14-31.37,90.93-24.79,12.69-58.85,6.88-75.71-16.03-14.91-19.51-14.03-49.24,3.21-67.01,17.56-18.6,50.58-18.01,65.36,3.55,10.11,14.34,7.58,36.6-7.21,46.71-8.08,5.64-19.14,6.53-27.91,2.17-6.54-2.98-11.65-9.62-12.63-16.67-1.55-9.15,3.57-19.38,12.85-21.65,4.3-1.08,8.91-.29,12.33,2.05l-1.03,1.94c-6.27-2.58-13.93.67-15.88,6.98-4.35,13.05,9.43,22.11,20.78,16.45,9.96-4.84,11.31-19.79,4.4-27.65-3.41-4.19-8.52-6.39-13.74-7.21-18.59-2.22-30.2,13.92-28.26,31.25,2.47,18.86,18.68,29.48,36.84,29.96,12.51.25,24.98-5.26,33.31-14.67,8.31-9.82,12.55-22.68,12.48-35.53-.39-29.03-20.34-50.83-47.88-57.92-27.22-7.51-54.22,3.55-73.11,24.79-19.52,21.76-23.08,57.34-11.08,86.34,11.43,27.61,9.9,49.22,36.12,63.9,0,0-1.03,1.94-1.03,1.94h0Z"/>
    <path id="spiral_right" class="cls-6" d="M404,697c21-9,75.76-76.69,34.51-124.08-26.04-29.51-70.11-36.16-100.48-10.92-17.96,15.07-25.35,41.4-17.22,63.46,2.14,6.04,5.35,11.75,9.6,16.54,12.34,13.9,33.76,18.29,50.44,10.18,16.07-6.74,24.04-26.38,16.85-42.38-4.63-12.26-19.77-18.32-31.77-13.13-8.13,3.02-13.29,11.75-11.94,20.51.78,5.46,3.63,10.27,8.56,12.72,11.35,5.65,25.12-3.4,20.78-16.45-1.96-6.31-9.62-9.57-15.88-6.98,0,0-1.03-1.94-1.03-1.94,3.42-2.34,8.03-3.13,12.33-2.05,9.28,2.27,14.4,12.49,12.85,21.65-.98,7.05-6.1,13.69-12.63,16.67-8.77,4.36-19.83,3.47-27.91-2.17-14.79-10.11-17.33-32.37-7.21-46.71,14.78-21.56,47.8-22.15,65.36-3.55,17.24,17.77,18.12,47.5,3.21,67.01-16.87,22.91-50.93,28.72-75.71,16.03-32.91-15.79-44.86-58.31-31.37-90.93,6.32-15.91,18.3-29.48,33.31-37.68,44.99-25.14,104.31-5.79,124.98,41.46,16.98,35.96,11.61,80.95-13.22,111.84-9.72,12.21-22.09,22.17-35.91,29.04l-1.03-1.94-9.47-26.17Z"/>
    <path id="inner_flower" class="cls-5" d="M452,522c-5-9,79-48,99-27-14,55-23,62-23,62l-43,6s-22-23-33-41Z"/>
    <g id="back_lobe_with_glow">
      <g id="back_lobe">
        <path class="cls-4" d="M543,498c-19,41-11.96,62.15-4,95,12.26,50.56-2.11,71.86,40,96-13.86,23.39-1.48,54.3-22.44,67.94,1.6,7.1,2.44,14.48,2.44,22.06,0,55.23-44.77,100-100,100s-100-44.77-100-100c0-20.17,5.97-38.94,16.24-54.64,3.09-4.74,6.58-9.2,10.42-13.33,12.71-13.72,33.67-21.36,47.86-28.75,25.48-13.28,45.48-62.39,45.48-103.28,0-36.95-25-75-39-97-14.17-22.27-38-64-38-94,0,0,13.05-4.74,12,1-7.03,38.26,53,108,65.51,113.75-6.22-37.31,22.02-98.52,17.49-134.75-1-8-.73-7.64,1.53-8.77,6.37-3.18,9.87,2.3,9.97,9.41.5,34.36-30.15,112.51-2.5,131.36,22,15,48-61,91-119,5.96-8.04,19.71-7.41,13,0-19,21-49.02,78.21-67,117Z"/>
        <g id="stem_flowers">
          <circle class="cls-6" cx="509" cy="359" r="20"/>
          <circle class="cls-6" cx="409" cy="379" r="20"/>
          <circle class="cls-6" cx="609" cy="379" r="20"/>
        </g>
      </g>
      <path class="cls-2" d="M422.25,717.59c-41.25,72.41,6.75,84.41,6.75,96.41,0,8-1.29,22.39-14.13,16.64-54.36-24.36-25.62-93.37,7.38-113.05Z"/>
    </g>
    <g id="front_lobe_with_glow">
      <path class="cls-9" d="M649,802c-3.23,60.98-65.77,106.65-126.75,103.43-60.98-3.23-107.8-55.28-104.58-116.26,1.74-32.84,19.05-59.92,41.47-80.59,18.96-17.48,31.86-47.7,31.86-87.58,0-19-34-77-39-99,16,17,73,13,99-27-31,132,57.46,216.44,58,217,30,31,41.45,62.64,40,90Z"/>
      <path class="cls-2" d="M588,738c27,67-50,83-53,109-1.11,9.66,7,28,23.93,25.56,71.64-10.34,61.07-100.56,29.07-134.56Z"/>
    </g>
  </g>
  <g id="bearer">
    <g id="flower_base-2" data-name="flower_base">
      <path class="cls-3" d="M572,906c-26.55,21.87-49,61-53,84s-13,67-1.5,121.5c-16.5-35.5-14-81-14-100s5.36-60.43-11.84-102.87c9.71,3.27,19.93,5.23,30.44,5.79,2.02.11,4.07.16,6.09.16,15.38,0,30.07-3.07,43.48-8.64.11.02.22.04.33.06Z"/>
      <path class="cls-3" d="M219,789c0,50,95.28,117.64,140,140,20,10,140,40,140,130,0-100-60-130-100-160-32-24-180-90-180-110Z"/>
      <path class="cls-3" d="M799,789c0,50-95.28,117.64-140,140-20,10-140,60-140,150,0-100,60-150,100-180,32-24,180-90,180-110Z"/>
    </g>
    <path id="spiral_left-2" data-name="spiral_left" class="cls-9" d="M603.09,719.85c-59.8-29.16-78.22-109.41-36.31-161.41,20.98-25.51,56.63-37.31,88.9-29.77,25.23,5.66,47,22.12,56.59,46.53,13.49,32.62,1.54,75.14-31.37,90.93-24.79,12.69-58.85,6.88-75.71-16.03-14.91-19.51-14.03-49.24,3.21-67.01,17.56-18.6,50.58-18.01,65.36,3.55,10.11,14.34,7.58,36.6-7.21,46.71-8.08,5.64-19.14,6.53-27.91,2.17-6.54-2.98-11.65-9.62-12.63-16.67-1.55-9.15,3.57-19.38,12.85-21.65,4.3-1.08,8.91-.29,12.33,2.05l-1.03,1.94c-6.27-2.58-13.93.67-15.88,6.98-4.35,13.05,9.43,22.11,20.78,16.45,9.96-4.84,11.31-19.79,4.4-27.65-3.41-4.19-8.52-6.39-13.74-7.21-18.59-2.22-30.2,13.92-28.26,31.25,2.47,18.86,18.68,29.48,36.84,29.96,12.51.25,24.98-5.26,33.31-14.67,8.31-9.82,12.55-22.68,12.48-35.53-.39-29.03-20.34-50.83-47.88-57.92-27.22-7.51-54.22,3.55-73.11,24.79-19.52,21.76-23.08,57.34-11.08,86.34,11.43,27.61,9.9,49.22,36.12,63.9,0,0-1.03,1.94-1.03,1.94h0Z"/>
    <path id="spiral_right-2" data-name="spiral_right" class="cls-9" d="M404,697c21-9,75.76-76.69,34.51-124.08-26.04-29.51-70.11-36.16-100.48-10.92-17.96,15.07-25.35,41.4-17.22,63.46,2.14,6.04,5.35,11.75,9.6,16.54,12.34,13.9,33.76,18.29,50.44,10.18,16.07-6.74,24.04-26.38,16.85-42.38-4.63-12.26-19.77-18.32-31.77-13.13-8.13,3.02-13.29,11.75-11.94,20.51.78,5.46,3.63,10.27,8.56,12.72,11.35,5.65,25.12-3.4,20.78-16.45-1.96-6.31-9.62-9.57-15.88-6.98,0,0-1.03-1.94-1.03-1.94,3.42-2.34,8.03-3.13,12.33-2.05,9.28,2.27,14.4,12.49,12.85,21.65-.98,7.05-6.1,13.69-12.63,16.67-8.77,4.36-19.83,3.47-27.91-2.17-14.79-10.11-17.33-32.37-7.21-46.71,14.78-21.56,47.8-22.15,65.36-3.55,17.24,17.77,18.12,47.5,3.21,67.01-16.87,22.91-50.93,28.72-75.71,16.03-32.91-15.79-44.86-58.31-31.37-90.93,6.32-15.91,18.3-29.48,33.31-37.68,44.99-25.14,104.31-5.79,124.98,41.46,16.98,35.96,11.61,80.95-13.22,111.84-9.72,12.21-22.09,22.17-35.91,29.04l-1.03-1.94-9.47-26.17Z"/>
    <path id="inner_flower-2" data-name="inner_flower" class="cls-1" d="M452,522c-5-9,79-48,99-27-14,55-23,62-23,62l-43,6s-22-23-33-41Z"/>
    <g id="back_lobe_with_glow-2" data-name="back_lobe_with_glow">
      <g id="back_lobe-2" data-name="back_lobe">
        <path class="cls-8" d="M543,498c-19,41-11.96,62.15-4,95,12.26,50.56-2.11,71.86,40,96-13.86,23.39-1.48,54.3-22.44,67.94,1.6,7.1,2.44,14.48,2.44,22.06,0,55.23-44.77,100-100,100s-100-44.77-100-100c0-20.17,5.97-38.94,16.24-54.64,3.09-4.74,6.58-9.2,10.42-13.33,12.71-13.72,33.67-21.36,47.86-28.75,25.48-13.28,45.48-62.39,45.48-103.28,0-36.95-25-75-39-97-14.17-22.27-38-64-38-94,0,0,13.05-4.74,12,1-7.03,38.26,53,108,65.51,113.75-6.22-37.31,22.02-98.52,17.49-134.75-1-8-.73-7.64,1.53-8.77,6.37-3.18,9.87,2.3,9.97,9.41.5,34.36-30.15,112.51-2.5,131.36,22,15,48-61,91-119,5.96-8.04,19.71-7.41,13,0-19,21-49.02,78.21-67,117Z"/>
        <g id="stem_flowers-2" data-name="stem_flowers">
          <circle class="cls-1" cx="509" cy="359" r="20"/>
          <circle class="cls-1" cx="409" cy="379" r="20"/>
          <circle class="cls-1" cx="609" cy="379" r="20"/>
        </g>
      </g>
      <path class="cls-2" d="M422.25,717.59c-41.25,72.41,6.75,84.41,6.75,96.41,0,8-1.29,22.39-14.13,16.64-54.36-24.36-25.62-93.37,7.38-113.05Z"/>
    </g>
    <g id="front_lobe_with_glow-2" data-name="front_lobe_with_glow">
      <path class="cls-7" d="M649,802c-3.23,60.98-65.77,106.65-126.75,103.43-60.98-3.23-107.8-55.28-104.58-116.26,1.74-32.84,19.05-59.92,41.47-80.59,18.96-17.48,31.86-47.7,31.86-87.58,0-19-34-77-39-99,16,17,73,13,99-27-31,132,57.46,216.44,58,217,30,31,41.45,62.64,40,90Z"/>
      <path class="cls-2" d="M588,738c27,67-50,83-53,109-1.11,9.66,7,28,23.93,25.56,71.64-10.34,61.07-100.56,29.07-134.56Z"/>
    </g>
  </g>
</svg>